<?xml version="1.0" encoding="utf-8"?>
<!-- Generator: Adobe Illustrator 22.0.0, SVG Export Plug-In . SVG Version: 6.00 Build 0)  -->
<svg version="1.1" id="Capa_1" xmlns="http://www.w3.org/2000/svg" xmlns:xlink="http://www.w3.org/1999/xlink" x="0px" y="0px"
	 viewBox="0 0 928.8 508.2" style="enable-background:new 0 0 928.8 508.2;" xml:space="preserve">
<style type="text/css">
	.st0{fill:url(#SVGID_1_);}
	.st1{fill:#010101;}
</style>
<g>
	
		<linearGradient id="SVGID_1_" gradientUnits="userSpaceOnUse" x1="-498.468" y1="3091.4597" x2="-497.468" y2="3091.4597" gradientTransform="matrix(549.653 -399.346 -399.346 -549.653 1508734.25 1500621.875)">
		<stop  offset="0" style="stop-color:#ED2224"/>
		<stop  offset="0.1297" style="stop-color:#ED2224"/>
		<stop  offset="0.215" style="stop-color:#EA2527"/>
		<stop  offset="0.3229" style="stop-color:#E42C2F"/>
		<stop  offset="0.443" style="stop-color:#DA353D"/>
		<stop  offset="0.5719" style="stop-color:#CC4050"/>
		<stop  offset="0.7078" style="stop-color:#B94B67"/>
		<stop  offset="0.8497" style="stop-color:#A15483"/>
		<stop  offset="0.9939" style="stop-color:#815DA5"/>
		<stop  offset="1" style="stop-color:#7F5DA7"/>
	</linearGradient>
	<path class="st0" d="M736.2,54.5l0.4-0.3c17.4,24,25.9,51.4,25.9,77.5c0,33.4-13.9,64.8-40.7,84.3L347.4,488
		c-18.9,13.7-40,20.2-61.2,20.2c-42.6,0-85.2-26.3-109.5-73.6c-9.8-19.1-14.6-39.5-14.6-59.2c0-3.6,0.2-7.2,0.5-10.8
		c2.7-29.3,16.3-56.1,40.2-73.5L578.3,18.3C595.4,5.9,615.4,0,635.9,0c36.9,0,75.2,19.2,100.7,54.2L736.2,54.5l-0.4,0.3
		C710.5,20,672.4,1,635.9,1c-20.3,0-40.1,5.9-57,18.1L203.4,292c-23.7,17.2-37.2,43.7-39.8,72.7c-0.3,3.5-0.5,7.1-0.5,10.7
		c0,19.5,4.8,39.8,14.5,58.8c24.2,47,66.4,73.1,108.6,73.1c21,0,41.9-6.5,60.6-20l374.4-272c26.6-19.3,40.3-50.4,40.3-83.5
		c0-25.9-8.4-53.1-25.7-76.9L736.2,54.5z"/>
	<path class="st1" d="M928.8,120.2v269.3c0,24.8-20.1,44.8-44.8,44.8H112.8c-16.1,0-30.3-10.8-34.4-26.4L1.2,120.3
		c-6.1-22.6,11-44.9,34.4-44.9H884C908.7,75.4,928.8,95.5,928.8,120.2"/>
</g>
</svg>
