<?xml version="1.0" encoding="utf-8"?>
<!-- Generator: Adobe Illustrator 22.0.0, SVG Export Plug-In . SVG Version: 6.00 Build 0)  -->
<svg version="1.1" id="Capa_1" xmlns="http://www.w3.org/2000/svg" xmlns:xlink="http://www.w3.org/1999/xlink" x="0px" y="0px"
	 viewBox="0 0 662.7 1262.6" style="enable-background:new 0 0 662.7 1262.6;" xml:space="preserve">
<style type="text/css">
	.st0{fill:none;}
	.st1{fill:url(#SVGID_1_);}
</style>
<path class="st0" d="M58.7,1262.1C58.7,1248.1,11.2,250.9,0,15.6c0-0.3,0-0.5,0-0.8C0,5.8,7.4,0,15,0c4.4,0,8.9,2,12,6.3
	c111,158.6,512.6,730,521.1,729.5v0.3l-0.3,0c0,0,0.1-0.3,0.3-0.3v0.3l-0.3,0c0.1-16.3,114-338.1,114-338.2c0.1-0.2,0.3-0.4,0.6-0.3
	c0.2,0,0.4,0.3,0.4,0.5l-8,860c0,0.3-0.2,0.5-0.5,0.5c-0.3,0-0.5-0.2-0.5-0.5l8-860l0.5,0l0.5,0.2c-0.1,0.3-114,322.2-114,337.8
	c0,0.2-0.2,0.7-0.7,0.7c-10.2-0.4-410.4-571.1-521.9-730C23.2,2.8,19.1,1,15,1C7.9,1,1,6.4,1,14.8c0,0.2,0,0.5,0,0.7
	C12.2,250.9,59.7,1248,59.7,1262.1c0,0.3-0.2,0.5-0.5,0.5C58.9,1262.6,58.7,1262.4,58.7,1262.1L58.7,1262.1z"/>
<linearGradient id="SVGID_1_" gradientUnits="userSpaceOnUse" x1="-629.2645" y1="3470.1567" x2="-628.2645" y2="3470.1567" gradientTransform="matrix(663.668 0 0 -663.668 417620.7813 2303663.5)">
	<stop  offset="0" style="stop-color:#ED2224"/>
	<stop  offset="0.1297" style="stop-color:#ED2224"/>
	<stop  offset="0.215" style="stop-color:#EA2527"/>
	<stop  offset="0.3229" style="stop-color:#E42C2F"/>
	<stop  offset="0.443" style="stop-color:#DA353D"/>
	<stop  offset="0.5719" style="stop-color:#CC4050"/>
	<stop  offset="0.7078" style="stop-color:#B94B67"/>
	<stop  offset="0.8497" style="stop-color:#A15483"/>
	<stop  offset="0.9939" style="stop-color:#815DA5"/>
	<stop  offset="1" style="stop-color:#7F5DA7"/>
</linearGradient>
<path class="st1" d="M56.7,1262.1C56.7,1248.1,9.2,250.9-2,15.6c0-0.3,0-0.5,0-0.8C-2,5.8,5.4,0,13,0c4.4,0,8.9,2,12,6.3
	c111,158.6,512.6,730,521.1,729.5v0.3l-0.3,0c0,0,0.1-0.3,0.3-0.3v0.3l-0.3,0c0.1-16.3,114-338.1,114-338.2c0.1-0.2,0.3-0.4,0.6-0.3
	c0.2,0,0.4,0.3,0.4,0.5l-8,860c0,0.3-0.2,0.5-0.5,0.5c-0.3,0-0.5-0.2-0.5-0.5l8-860l0.5,0l0.5,0.2c-0.1,0.3-114,322.2-114,337.8
	c0,0.2-0.2,0.7-0.7,0.7c-10.2-0.4-410.4-571.1-521.9-730C21.2,2.8,17.1,1,13,1C5.9,1-1,6.4-1,14.8c0,0.2,0,0.5,0,0.7
	C10.2,250.9,57.7,1248,57.7,1262.1c0,0.3-0.2,0.5-0.5,0.5C56.9,1262.6,56.7,1262.4,56.7,1262.1L56.7,1262.1z"/>
</svg>
